<svg xmlns="http://www.w3.org/2000/svg" id="Layer_2" data-name="Layer 2" viewBox="0 0 1230.13 233.06"><defs><style>      .cls-1 {        fill: #d7de27;      }      .cls-2 {        fill: #e90e8b;      }      .cls-3 {        fill: #652f8f;      }      .cls-4 {        fill: #fff;        stroke: #000;        stroke-miterlimit: 10;        stroke-width: 2.62px;      }      .cls-5 {        fill: #d91f5d;      }      .cls-6 {        fill-rule: evenodd;      }      .cls-7 {        fill: #1d76bb;      }      .cls-8 {        fill: #f69321;      }      .cls-9 {        fill: #0066e0;      }    </style></defs><g id="Layer_1-2" data-name="Layer 1"><g><g><g><path d="M169.65,2.65h13.59v49.42h30.8v12.36h-44.39V2.65Z"></path><path d="M220.05,0h14.12v11.91h-14.12V0ZM220.4,17.12h13.42v47.3h-13.42V17.12Z"></path><path d="M239.55,17.12h14.21l10.59,31.68,10.68-31.68h13.95l-18.63,47.66h-12.18l-18.63-47.66Z"></path><path d="M289.16,41.04v-.17c0-13.5,9.62-24.63,23.38-24.63,15.8,0,23.04,12.27,23.04,25.68,0,1.06-.09,2.29-.18,3.53h-32.92c1.32,6.09,5.56,9.27,11.56,9.27,4.5,0,7.76-1.41,11.47-4.86l7.68,6.8c-4.41,5.47-10.77,8.83-19.33,8.83-14.21,0-24.71-9.97-24.71-24.45ZM322.52,37.07c-.79-6-4.33-10.06-9.98-10.06s-9.18,3.97-10.24,10.06h20.21Z"></path></g><g><rect class="cls-9" x="50.14" y="3.6" width="89.19" height="33.21"></rect><polygon class="cls-6" points="0 3.6 34.29 3.6 34.29 109.73 139.33 109.73 139.33 142.93 0 142.93 0 3.6"></polygon></g><g><path class="cls-9" d="M166.47,111.94v-.17c0-17.57,13.24-31.95,32.21-31.95,11.65,0,18.63,3.88,24.36,9.53l-8.65,9.97c-4.76-4.33-9.62-6.97-15.8-6.97-10.42,0-17.92,8.65-17.92,19.24v.18c0,10.59,7.33,19.41,17.92,19.41,7.06,0,11.38-2.82,16.24-7.24l8.65,8.74c-6.36,6.8-13.42,11.03-25.33,11.03-18.18,0-31.68-14.03-31.68-31.77Z"></path><path class="cls-9" d="M227.11,119.26v-.17c0-13.59,10.94-24.63,25.68-24.63s25.5,10.86,25.5,24.45v.18c0,13.59-10.94,24.62-25.68,24.62s-25.5-10.86-25.5-24.45ZM265.06,119.26v-.17c0-6.97-5.03-13.06-12.45-13.06s-12.27,5.91-12.27,12.89v.18c0,6.97,5.03,13.06,12.45,13.06s12.27-5.91,12.27-12.89Z"></path><path class="cls-9" d="M285.37,95.34h13.41v6.71c3.09-3.97,7.06-7.59,13.86-7.59,10.15,0,16.07,6.71,16.07,17.57v30.62h-13.42v-26.39c0-6.36-3-9.62-8.12-9.62s-8.39,3.27-8.39,9.62v26.39h-13.41v-47.31Z"></path><path class="cls-9" d="M337.71,95.34h13.41v6.71c3.09-3.97,7.06-7.59,13.86-7.59,10.15,0,16.07,6.71,16.07,17.57v30.62h-13.42v-26.39c0-6.36-3-9.62-8.12-9.62s-8.39,3.27-8.39,9.62v26.39h-13.41v-47.31Z"></path><path class="cls-9" d="M387.76,119.26v-.17c0-13.5,9.62-24.63,23.38-24.63,15.8,0,23.04,12.27,23.04,25.68,0,1.06-.09,2.29-.18,3.53h-32.92c1.32,6.09,5.56,9.27,11.56,9.27,4.5,0,7.76-1.41,11.47-4.86l7.68,6.8c-4.41,5.47-10.77,8.83-19.33,8.83-14.21,0-24.71-9.97-24.71-24.45ZM421.12,115.29c-.79-6-4.33-10.06-9.98-10.06s-9.18,3.97-10.24,10.06h20.21Z"></path><path class="cls-9" d="M439.22,119.26v-.17c0-13.5,10.32-24.63,24.8-24.63,8.91,0,14.48,3,18.88,7.95l-8.21,8.83c-3-3.18-6-5.21-10.77-5.21-6.71,0-11.47,5.91-11.47,12.89v.18c0,7.24,4.68,13.06,12,13.06,4.5,0,7.59-1.94,10.86-5.03l7.85,7.94c-4.59,5.03-9.88,8.65-19.32,8.65-14.21,0-24.62-10.94-24.62-24.45Z"></path><path class="cls-9" d="M491.47,129.23v-22.42h-5.65v-11.47h5.65v-12.09h13.42v12.09h11.12v11.47h-11.12v20.21c0,3.09,1.32,4.59,4.32,4.59,2.47,0,4.68-.62,6.62-1.68v10.77c-2.82,1.68-6.09,2.74-10.59,2.74-8.21,0-13.77-3.27-13.77-14.21Z"></path><path class="cls-9" d="M523.52,78.22h14.12v11.91h-14.12v-11.91ZM523.87,95.34h13.42v47.31h-13.42v-47.31Z"></path><path class="cls-9" d="M544.97,119.26v-.17c0-13.59,10.94-24.63,25.68-24.63s25.5,10.86,25.5,24.45v.18c0,13.59-10.94,24.62-25.68,24.62s-25.5-10.86-25.5-24.45ZM582.92,119.26v-.17c0-6.97-5.03-13.06-12.45-13.06s-12.27,5.91-12.27,12.89v.18c0,6.97,5.03,13.06,12.45,13.06s12.27-5.91,12.27-12.89Z"></path><path class="cls-9" d="M603.22,95.34h13.41v6.71c3.09-3.97,7.06-7.59,13.86-7.59,10.15,0,16.07,6.71,16.07,17.57v30.62h-13.42v-26.39c0-6.36-3-9.62-8.12-9.62s-8.39,3.27-8.39,9.62v26.39h-13.41v-47.31Z"></path><path class="cls-9" d="M651.86,136.38l5.74-8.83c5.12,3.71,10.5,5.65,14.92,5.65,3.88,0,5.65-1.41,5.65-3.53v-.18c0-2.91-4.59-3.88-9.8-5.47-6.62-1.94-14.12-5.03-14.12-14.21v-.18c0-9.62,7.77-15,17.3-15,6,0,12.54,2.03,17.66,5.47l-5.12,9.27c-4.68-2.74-9.36-4.41-12.8-4.41-3.26,0-4.94,1.41-4.94,3.26v.18c0,2.65,4.5,3.88,9.62,5.65,6.62,2.21,14.3,5.38,14.3,14.03v.18c0,10.5-7.86,15.27-18.1,15.27-6.62,0-14.03-2.21-20.3-7.15Z"></path></g></g><g><path d="M172.37,228.93l14.36-12.66c6.05-5.43,8.25-8.48,8.25-12.44,0-4.64-3.67-7.58-7.97-7.58-4.52,0-7.46,2.37-10.63,6.78l-3.28-2.37c3.56-5.31,7.29-8.42,14.25-8.42s12.27,4.75,12.27,11.19v.11c0,5.77-3.05,9.33-10.01,15.38l-10.57,9.38h20.97v4.07h-27.65v-3.45Z"></path><path d="M206.29,228.2l2.6-3.45c3.22,2.83,6.22,4.24,9.72,4.24,7.12,0,11.93-7.24,11.76-17.36-2.15,3.45-5.71,6.33-11.19,6.33-8.14,0-13.79-5.14-13.79-12.27v-.11c0-7.52,5.82-13.46,14.25-13.46,4.52,0,7.86,1.53,10.4,4.07,3,3,4.92,7.41,4.92,15.32v.11c0,12.55-6.67,21.43-16.45,21.43-5.14,0-8.88-2.09-12.21-4.86ZM229.53,205.19v-.11c0-5.03-4.13-8.99-10.06-8.99s-9.5,4.35-9.5,9.27v.11c0,5.03,3.96,8.65,9.72,8.65,6.05,0,9.84-4.41,9.84-8.93Z"></path><path d="M269.95,216.72l-16.45-23.91h5.43l13.34,19.79,13.46-19.79h5.2l-16.45,23.86v15.72h-4.52v-15.66Z"></path><path d="M302.29,229.27c4.01,0,6.84-1.64,9.22-4.13l2.71,2.43c-2.94,3.28-6.5,5.48-12.04,5.48-8.03,0-14.59-6.16-14.59-15.26,0-8.48,5.94-15.26,14.02-15.26,8.65,0,13.62,6.9,13.62,15.49,0,.4,0,.85-.06,1.53h-23.18c.62,6.16,5.14,9.72,10.29,9.72ZM310.83,216.04c-.51-5.31-3.56-9.84-9.33-9.84-5.03,0-8.88,4.18-9.5,9.84h18.83Z"></path><path d="M318.97,223.9v-.11c0-6.27,5.09-9.55,12.49-9.55,3.73,0,6.33.51,8.93,1.24v-.9c0-5.2-3.17-7.91-8.65-7.91-3.45,0-6.16.85-8.88,2.09l-1.3-3.56c3.22-1.47,6.33-2.49,10.63-2.49s7.35,1.13,9.44,3.22,3.05,4.86,3.05,8.59v17.86h-4.3v-4.35c-2.04,2.6-5.37,4.98-10.52,4.98-5.48,0-10.91-3.11-10.91-9.1ZM340.46,221.64v-2.71c-2.15-.62-4.98-1.24-8.54-1.24-5.43,0-8.54,2.37-8.54,5.88v.11c0,3.67,3.39,5.82,7.35,5.82,5.37,0,9.72-3.22,9.72-7.86Z"></path><path d="M352.22,203.15h4.35v7.63c2.15-4.86,6.39-8.37,11.93-8.14v4.69h-.34c-6.39,0-11.59,4.58-11.59,13.4v11.65h-4.35v-29.23Z"></path><path d="M370.99,228.65l2.2-3.11c3.17,2.37,6.67,3.73,10.12,3.73s6.05-1.81,6.05-4.64v-.11c0-2.94-3.45-4.07-7.29-5.14-4.58-1.3-9.67-2.88-9.67-8.25v-.11c0-5.03,4.18-8.37,9.95-8.37,3.56,0,7.52,1.24,10.51,3.22l-1.98,3.28c-2.71-1.75-5.82-2.83-8.65-2.83-3.45,0-5.65,1.81-5.65,4.24v.11c0,2.77,3.62,3.84,7.52,5.03,4.52,1.36,9.38,3.11,9.38,8.37v.11c0,5.54-4.58,8.76-10.4,8.76-4.18,0-8.82-1.64-12.1-4.3Z"></path><path d="M415.88,192.81h4.52l14.42,21.6,14.42-21.6h4.52v39.57h-4.47v-32.05l-14.42,21.2h-.23l-14.42-21.14v32h-4.35v-39.57Z"></path><path d="M462.64,191.96h4.97v4.81h-4.97v-4.81ZM462.92,203.15h4.35v29.23h-4.35v-29.23Z"></path><path d="M473.27,228.65l2.21-3.11c3.17,2.37,6.67,3.73,10.12,3.73s6.05-1.81,6.05-4.64v-.11c0-2.94-3.45-4.07-7.29-5.14-4.58-1.3-9.67-2.88-9.67-8.25v-.11c0-5.03,4.18-8.37,9.95-8.37,3.56,0,7.52,1.24,10.52,3.22l-1.98,3.28c-2.71-1.75-5.82-2.83-8.65-2.83-3.45,0-5.65,1.81-5.65,4.24v.11c0,2.77,3.62,3.84,7.52,5.03,4.52,1.36,9.38,3.11,9.38,8.37v.11c0,5.54-4.58,8.76-10.4,8.76-4.18,0-8.82-1.64-12.1-4.3Z"></path><path d="M499.16,228.65l2.2-3.11c3.17,2.37,6.67,3.73,10.12,3.73s6.05-1.81,6.05-4.64v-.11c0-2.94-3.45-4.07-7.29-5.14-4.58-1.3-9.67-2.88-9.67-8.25v-.11c0-5.03,4.18-8.37,9.95-8.37,3.56,0,7.52,1.24,10.51,3.22l-1.98,3.28c-2.71-1.75-5.82-2.83-8.65-2.83-3.45,0-5.65,1.81-5.65,4.24v.11c0,2.77,3.62,3.84,7.52,5.03,4.52,1.36,9.38,3.11,9.38,8.37v.11c0,5.54-4.58,8.76-10.4,8.76-4.18,0-8.82-1.64-12.1-4.3Z"></path><path d="M528.17,191.96h4.97v4.81h-4.97v-4.81ZM528.45,203.15h4.35v29.23h-4.35v-29.23Z"></path><path d="M539.42,217.91v-.11c0-8.25,6.44-15.26,15.26-15.26s15.21,6.9,15.21,15.15v.11c0,8.25-6.5,15.26-15.32,15.26s-15.15-6.9-15.15-15.15ZM565.43,217.91v-.11c0-6.27-4.69-11.42-10.85-11.42s-10.69,5.14-10.69,11.31v.11c0,6.28,4.64,11.36,10.8,11.36s10.74-5.09,10.74-11.25Z"></path><path d="M576.06,203.15h4.35v5.09c1.92-3.17,4.97-5.71,10.01-5.71,7.07,0,11.19,4.75,11.19,11.7v18.15h-4.35v-17.07c0-5.43-2.94-8.82-8.08-8.82s-8.76,3.67-8.76,9.16v16.73h-4.35v-29.23Z"></path></g><g><g><g><path d="M911.55,7.52c0-4.43,3.37-7.52,7.54-7.52,2.59,0,4.58.97,5.83,2.85l-1.19.86c-.95-1.4-2.53-2.31-4.65-2.31-3.44,0-5.92,2.61-5.92,6.11s2.49,6.12,5.92,6.12c2.14,0,3.78-.93,4.84-2.46l1.21.84c-1.3,1.9-3.42,3.03-6.05,3.03-4.17,0-7.54-3.09-7.54-7.52Z"></path><path d="M943.19.17h8.94v1.38h-7.39v6.89h6.59v1.36h-6.59v3.67h7.69v1.38h-9.25V.17Z"></path><path d="M980.36,14.87h-1.84l-2.83-4.02c-.5.09-1.04.13-1.56.13h-1.75v3.89h-1.56V.17h3.31c4.02,0,6.09,2.25,6.09,5.42,0,2.2-1.04,3.93-3.07,4.75l3.2,4.52ZM974.05,9.62c3.33,0,4.56-1.71,4.56-4.02s-1.25-4.04-4.56-4.04h-1.66v8.06h1.66Z"></path><path d="M1001.72,1.56h-4.52V.17h10.59v1.38h-4.52v13.31h-1.56V1.56Z"></path><path d="M1025.69.17h1.58v14.69h-1.58V.17Z"></path><path d="M1046.47.17h8.84v1.38h-7.28v6.89h6.61v1.43h-6.61v4.99h-1.56V.17Z"></path><path d="M1073.66.17h1.58v14.69h-1.58V.17Z"></path><path d="M1094.44.17h8.95v1.38h-7.39v6.89h6.59v1.36h-6.59v3.67h7.69v1.38h-9.25V.17Z"></path><path d="M1122.09.17h3.56c4.91,0,7.95,2.9,7.95,7.35s-3.03,7.35-7.95,7.35h-3.56V.17ZM1125.54,13.46c4.34,0,6.42-2.44,6.42-5.94s-2.07-5.94-6.42-5.94h-1.9v11.89h1.9Z"></path></g><g><g><path d="M840.95,210.7h1.66l3.09,9.79c.19.65.41,1.6.41,1.6,0,0,.24-.97.48-1.6l3.82-9.94h.26l3.83,9.94c.24.63.48,1.6.48,1.6,0,0,.22-.97.41-1.6l3.07-9.79h1.58l-4.84,14.85h-.26l-3.95-10.46c-.24-.61-.43-1.45-.43-1.45,0,0-.22.84-.45,1.45l-4.02,10.46h-.26l-4.86-14.85Z"></path><path d="M862.76,210.7h1.66l3.09,9.79c.2.65.41,1.6.41,1.6,0,0,.24-.97.48-1.6l3.83-9.94h.26l3.82,9.94c.24.63.48,1.6.48,1.6,0,0,.22-.97.41-1.6l3.07-9.79h1.58l-4.84,14.85h-.26l-3.96-10.46c-.24-.61-.43-1.45-.43-1.45,0,0-.21.84-.45,1.45l-4.02,10.46h-.26l-4.86-14.85Z"></path><path d="M884.57,210.7h1.66l3.09,9.79c.19.65.41,1.6.41,1.6,0,0,.24-.97.48-1.6l3.82-9.94h.26l3.83,9.94c.24.63.48,1.6.48,1.6,0,0,.22-.97.41-1.6l3.07-9.79h1.58l-4.84,14.85h-.26l-3.95-10.46c-.24-.61-.43-1.45-.43-1.45,0,0-.22.84-.45,1.45l-4.02,10.46h-.26l-4.86-14.85Z"></path><path d="M904.48,224.35c0-.67.56-1.17,1.17-1.17s1.17.5,1.17,1.17-.54,1.19-1.17,1.19-1.17-.52-1.17-1.19Z"></path><path d="M907.66,210.7h1.66l3.09,9.79c.19.65.41,1.6.41,1.6,0,0,.24-.97.48-1.6l3.82-9.94h.26l3.83,9.94c.24.63.48,1.6.48,1.6,0,0,.22-.97.41-1.6l3.07-9.79h1.58l-4.84,14.85h-.26l-3.95-10.46c-.24-.61-.43-1.45-.43-1.45,0,0-.22.84-.45,1.45l-4.02,10.46h-.26l-4.86-14.85Z"></path><path d="M929.34,218.04c0-4.43,3.37-7.52,7.54-7.52s7.56,3.09,7.56,7.52-3.37,7.52-7.56,7.52-7.54-3.09-7.54-7.52ZM942.82,218.04c0-3.5-2.51-6.11-5.94-6.11s-5.92,2.61-5.92,6.11,2.51,6.12,5.92,6.12,5.94-2.62,5.94-6.12Z"></path><path d="M948.84,210.52h.21l6.83,8.54,6.79-8.54h.24v14.87h-1.51v-9.7c0-.67.07-1.69.07-1.69,0,0-.56.95-1.04,1.53l-4.45,5.62h-.26l-4.39-5.62c-.48-.58-1.06-1.53-1.06-1.53,0,0,.09,1.01.09,1.69v9.7h-1.51v-14.87Z"></path><path d="M968.15,210.7h8.94v1.38h-7.39v6.89h6.59v1.36h-6.59v3.67h7.69v1.38h-9.25v-14.69Z"></path><path d="M984.26,215.17c-.41-.5-1.02-1.36-1.02-1.36,0,0,.13,1.04.13,1.66v9.92h-1.47v-14.85h.26l8.77,10.37c.41.5,1.02,1.36,1.02,1.36,0,0-.11-1.04-.11-1.66v-9.92h1.45v14.85h-.26l-8.77-10.37Z"></path><path d="M997.69,218.04c0-4.43,3.37-7.52,7.54-7.52s7.56,3.09,7.56,7.52-3.37,7.52-7.56,7.52-7.54-3.09-7.54-7.52ZM1011.18,218.04c0-3.5-2.51-6.11-5.94-6.11s-5.92,2.61-5.92,6.11,2.51,6.12,5.92,6.12,5.94-2.62,5.94-6.12Z"></path><path d="M1015.41,210.7h1.66l3.09,9.79c.19.65.41,1.6.41,1.6,0,0,.24-.97.48-1.6l3.82-9.94h.26l3.83,9.94c.24.63.48,1.6.48,1.6,0,0,.22-.97.41-1.6l3.07-9.79h1.58l-4.84,14.85h-.26l-3.95-10.46c-.24-.61-.43-1.45-.43-1.45,0,0-.22.84-.45,1.45l-4.02,10.46h-.26l-4.86-14.85Z"></path><path d="M1040.83,215.17c-.41-.5-1.02-1.36-1.02-1.36,0,0,.13,1.04.13,1.66v9.92h-1.47v-14.85h.26l8.77,10.37c.41.5,1.02,1.36,1.02,1.36,0,0-.11-1.04-.11-1.66v-9.92h1.45v14.85h-.26l-8.77-10.37Z"></path><path d="M1055.1,210.7h8.95v1.38h-7.39v6.89h6.59v1.36h-6.59v3.67h7.69v1.38h-9.25v-14.69Z"></path><path d="M1068.86,210.7h3.57c4.9,0,7.95,2.9,7.95,7.35s-3.03,7.35-7.95,7.35h-3.57v-14.69ZM1072.31,223.99c4.34,0,6.42-2.44,6.42-5.94s-2.07-5.94-6.42-5.94h-1.9v11.89h1.9Z"></path><path d="M1084.78,210.7h1.56v13.31h6.94v1.38h-8.49v-14.69Z"></path><path d="M1095.57,218.04c0-4.43,3.37-7.52,7.54-7.52s7.57,3.09,7.57,7.52-3.37,7.52-7.57,7.52-7.54-3.09-7.54-7.52ZM1109.06,218.04c0-3.5-2.51-6.11-5.94-6.11s-5.92,2.61-5.92,6.11,2.51,6.12,5.92,6.12,5.94-2.62,5.94-6.12Z"></path><path d="M1114.23,218.04c0-4.43,3.28-7.52,7.56-7.52,2.12,0,3.91.61,5.12,1.9l-1.06,1.06c-.95-.99-2.25-1.56-4.06-1.56-3.46,0-5.94,2.61-5.94,6.11s2.51,6.12,6.07,6.12c2.01,0,3.44-.61,4.34-1.34v-3.03h-4.36v-1.38h5.83v5.12c-1.08,1.06-3.05,2.03-5.81,2.03-4.39,0-7.69-3.09-7.69-7.52Z"></path><path d="M1131.51,218.04c0-4.43,3.37-7.52,7.54-7.52s7.56,3.09,7.56,7.52-3.37,7.52-7.56,7.52-7.54-3.09-7.54-7.52ZM1145,218.04c0-3.5-2.51-6.11-5.94-6.11s-5.92,2.61-5.92,6.11,2.51,6.12,5.92,6.12,5.94-2.62,5.94-6.12Z"></path><path d="M1149.05,224.35c0-.67.56-1.17,1.17-1.17s1.17.5,1.17,1.17-.54,1.19-1.17,1.19-1.17-.52-1.17-1.19Z"></path><path d="M1153.82,218.04c0-4.43,3.37-7.52,7.54-7.52,2.59,0,4.58.97,5.84,2.85l-1.19.86c-.95-1.4-2.53-2.31-4.65-2.31-3.44,0-5.92,2.61-5.92,6.11s2.48,6.12,5.92,6.12c2.14,0,3.78-.93,4.84-2.46l1.21.84c-1.3,1.9-3.41,3.03-6.05,3.03-4.17,0-7.54-3.09-7.54-7.52Z"></path><path d="M1170.63,218.04c0-4.43,3.37-7.52,7.54-7.52s7.56,3.09,7.56,7.52-3.37,7.52-7.56,7.52-7.54-3.09-7.54-7.52ZM1184.11,218.04c0-3.5-2.51-6.11-5.94-6.11s-5.92,2.61-5.92,6.11,2.51,6.12,5.92,6.12,5.94-2.62,5.94-6.12Z"></path><path d="M1190.13,210.52h.22l6.83,8.54,6.78-8.54h.24v14.87h-1.51v-9.7c0-.67.06-1.69.06-1.69,0,0-.56.95-1.04,1.53l-4.45,5.62h-.26l-4.39-5.62c-.48-.58-1.06-1.53-1.06-1.53,0,0,.09,1.01.09,1.69v9.7h-1.51v-14.87Z"></path></g><g><g><path d="M840.7,35.74h11.36l12.28,37.04c1.33,3.89,2.66,9.92,2.66,9.92,0,0,1.74-5.93,3.38-9.92l15.96-37.76h1.33l16.06,37.76c1.64,3.89,3.27,9.92,3.27,9.92,0,0,1.43-6.04,2.76-9.92l12.28-37.04h10.54l-24.05,70.3h-1.33l-17.29-41.44c-1.43-3.38-2.86-8.49-2.86-8.49,0,0-1.64,5.12-3.07,8.49l-17.7,41.44h-1.33l-24.25-70.3Z"></path><path d="M1011.98,35.02h1.13l33.26,38.88,32.95-38.88h1.13v70.3h-10.33v-36.12c0-3.89.41-10.03.41-10.03,0,0-3.38,5.22-6.24,8.39l-17.5,21.08h-1.23l-17.5-21.08c-2.66-3.17-6.14-8.39-6.14-8.39,0,0,.41,6.14.41,10.03v36.12h-10.33V35.02Z"></path><path d="M1092.09,35.74h44.2v9.52h-33.36v27.01h29.57v9.31h-29.57v14.22h34.79v9.52h-45.64V35.74Z"></path><path d="M1162.9,64.69c-2.76-2.97-6.55-7.78-6.55-7.78,0,0,.72,5.73.72,10.03v38.37h-10.03V35.02h1.43l38.37,41.24c2.66,2.86,6.44,7.78,6.44,7.78,0,0-.72-6.14-.72-10.03v-38.27h10.03v70.3h-1.33l-38.37-41.34Z"></path></g><g><g><path d="M846.06,154.19c0-21.45,16.48-36.87,37.08-36.87s36.98,15.42,36.98,36.87-16.48,36.87-36.98,36.87-37.08-15.42-37.08-36.87ZM908.71,154.19c0-15.32-10.56-26.83-25.57-26.83s-25.67,11.52-25.67,26.83,10.67,26.83,25.67,26.83,25.57-11.52,25.57-26.83Z"></path><path d="M919.59,118.27h11.73l12.68,38.24c1.37,4.01,2.75,10.25,2.75,10.25,0,0,1.8-6.13,3.49-10.25l16.48-38.98h1.37l16.59,38.98c1.69,4.01,3.38,10.25,3.38,10.25,0,0,1.48-6.23,2.85-10.25l12.68-38.24h10.88l-24.83,72.58h-1.37l-17.85-42.79c-1.48-3.49-2.96-8.77-2.96-8.77,0,0-1.69,5.28-3.17,8.77l-18.28,42.79h-1.37l-25.04-72.58Z"></path><path d="M1037.17,148.17c-2.85-3.06-6.76-8.03-6.76-8.03,0,0,.74,5.92.74,10.35v39.62h-10.35v-72.58h1.48l39.62,42.58c2.75,2.96,6.66,8.03,6.66,8.03,0,0-.74-6.34-.74-10.35v-39.51h10.35v72.58h-1.37l-39.62-42.68Z"></path><path d="M1090.2,118.27h45.64v9.83h-34.44v27.89h30.53v9.61h-30.53v14.69h35.92v9.82h-47.12v-71.84Z"></path><path d="M1146.93,118.27h19.76c23.03,0,38.35,14.37,38.35,35.92s-15.21,35.92-38.35,35.92h-19.76v-71.84ZM1165.94,180.29c18.7,0,27.47-10.78,27.47-26.09s-8.77-26.09-27.47-26.09h-7.82v52.19h7.82Z"></path></g><g><path class="cls-8" d="M951.26,62.86c1.91.69,3.85,1.82,5.78,3.37.08-.08.15-.17.22-.26.7-.83,1.34-1.73,1.88-2.67.69-1.2,1.25-2.48,1.66-3.83.14-.45.25-.9.35-1.35l.15-.79c.09-.47.16-.82.2-1.18.23-1.78.24-3.66.04-5.61-.21-2.01-.64-4.14-1.29-6.34-.09-.29-.23-.6-.44-.96-.57-.95-1.46-1.66-2.51-1.97-.86-.25-1.64-.26-2.51-.01-1.12.33-2.04,1.09-2.6,2.12-.56,1.03-.68,2.22-.35,3.34.12.4.23.8.32,1.18.11.44.21.86.29,1.28.06.32.12.63.17.94.05.27.09.56.13.84.22,1.76.2,3.31-.06,4.74-.12.65-.28,1.22-.48,1.76-.19.51-.41.99-.69,1.46-.32.57-.71,1.1-1.18,1.62-.37.41-.79.81-1.25,1.17-.1.08-.21.17-.32.25.41.15.8.29,1.17.43l1.29.48Z"></path><path class="cls-8" d="M940.35,57.19c2.97,0,5.39-2.42,5.39-5.39s-2.41-5.39-5.39-5.39-5.39,2.42-5.39,5.39,2.42,5.39,5.39,5.39Z"></path><path class="cls-5" d="M951.91,79.64c.32.56.59,1.16.81,1.82.17.53.3,1.1.39,1.67.02.13.04.27.05.4.3-.26.6-.5.88-.73l1.13-.94c1.56-1.31,3.51-2.43,5.81-3.33-.04-.11-.07-.22-.11-.33-.37-1.02-.83-2.02-1.37-2.96-.69-1.2-1.53-2.32-2.49-3.35-.31-.34-.65-.66-.99-.98l-.61-.53c-.35-.31-.63-.54-.92-.76-1.42-1.08-3.04-2.04-4.84-2.85-1.84-.82-3.9-1.51-6.13-2.05-.28-.06-.58-.1-.95-.1-1.21.02-2.27.44-3.07,1.19-.65.62-1.06,1.31-1.27,2.16-.27,1.14-.08,2.31.53,3.31.61,1,1.58,1.7,2.72,1.97.41.1.8.2,1.19.31.43.12.85.25,1.26.39.3.1.6.2.9.32.26.09.53.2.79.31,1.63.69,2.96,1.48,4.07,2.42.5.43.92.85,1.28,1.29.35.42.65.85.92,1.33Z"></path><path class="cls-5" d="M942.85,81.12c-.82-.47-1.74-.72-2.68-.72-1.92,0-3.72,1.03-4.68,2.69-.72,1.24-.91,2.69-.54,4.09.37,1.39,1.26,2.55,2.51,3.27.82.47,1.75.72,2.68.72,1.93,0,3.72-1.03,4.68-2.69.72-1.24.91-2.69.53-4.08-.37-1.39-1.26-2.56-2.51-3.27Z"></path><path class="cls-3" d="M956.26,96.89c1.18-.03,2.26-.52,3.07-1.37.29-.31.58-.6.86-.88.32-.31.64-.61.96-.89.24-.21.48-.43.73-.62.2-.16.41-.33.62-.5,1.45-1.1,2.8-1.85,4.17-2.34.63-.22,1.2-.37,1.76-.46,1.18-.2,2.38-.18,3.59.07.55.12,1.1.28,1.65.5.12.05.25.1.37.15-.07-.4-.14-.78-.2-1.15l-.24-1.44c-.36-2-.35-4.25.02-6.69-.11-.02-.23-.05-.34-.07-1.06-.19-2.16-.29-3.25-.29-1.39,0-2.78.16-4.15.48-.45.1-.9.23-1.34.37l-.76.26c-.48.17-.8.28-1.12.41-1.65.69-3.29,1.62-4.88,2.77-1.64,1.19-3.27,2.63-4.84,4.29-.21.23-.41.5-.61.86-.54.97-.7,2.09-.46,3.17.21.87.6,1.57,1.24,2.17.81.77,1.88,1.2,3,1.2h.13Z"></path><path class="cls-3" d="M969.48,97.56c-.94,0-1.87.25-2.69.72-2.57,1.49-3.46,4.79-1.97,7.36.96,1.66,2.75,2.69,4.68,2.69.94,0,1.87-.25,2.68-.72,2.57-1.49,3.46-4.79,1.97-7.36-.96-1.66-2.75-2.69-4.67-2.69Z"></path><path class="cls-2" d="M988.1,75.06c-1.91-.69-3.85-1.82-5.78-3.37-.07.08-.15.17-.22.26-.7.82-1.33,1.72-1.88,2.67-.69,1.19-1.25,2.48-1.66,3.83-.14.44-.24.9-.35,1.35l-.16.79c-.1.5-.16.83-.2,1.17-.23,1.78-.24,3.67-.05,5.62.2,2.01.64,4.14,1.29,6.33.09.3.23.6.44.96.57.96,1.46,1.66,2.51,1.98.87.26,1.65.27,2.5.02,1.12-.33,2.05-1.09,2.61-2.12.56-1.03.68-2.21.34-3.34-.12-.4-.23-.8-.32-1.18-.11-.44-.21-.86-.29-1.28-.06-.32-.13-.63-.17-.94-.05-.27-.09-.56-.12-.84-.22-1.76-.2-3.31.06-4.74.12-.65.28-1.22.48-1.76.18-.5.41-.98.68-1.46.33-.57.71-1.1,1.18-1.61.37-.42.79-.81,1.25-1.17.1-.08.21-.17.32-.25-.4-.15-.79-.29-1.15-.43l-1.31-.49Z"></path><path class="cls-2" d="M999.02,80.73c-2.97,0-5.39,2.42-5.39,5.39s2.42,5.39,5.39,5.39,5.39-2.42,5.39-5.39-2.42-5.39-5.39-5.39Z"></path><path class="cls-7" d="M996.88,73.28c1.11-.02,2.16-.44,2.97-1.19.65-.61,1.05-1.3,1.26-2.16.27-1.14.08-2.32-.53-3.31-.61-1-1.58-1.7-2.72-1.97-.41-.1-.8-.2-1.18-.31-.44-.12-.85-.25-1.26-.39-.3-.1-.61-.21-.9-.32-.25-.09-.52-.2-.79-.31-1.63-.69-2.96-1.48-4.07-2.42-.5-.43-.92-.86-1.28-1.29-.34-.41-.64-.84-.92-1.32-.34-.59-.6-1.18-.81-1.83-.17-.53-.3-1.09-.39-1.67-.02-.13-.04-.27-.05-.4-.33.27-.64.53-.94.78l-1.09.9c-1.55,1.31-3.51,2.43-5.8,3.32.04.11.07.22.11.32.36,1.01.82,2.01,1.37,2.97.69,1.19,1.53,2.32,2.49,3.35.32.34.65.66.99.98l.6.53c.35.31.63.54.92.76,1.42,1.08,3.04,2.04,4.84,2.85,1.85.83,3.91,1.52,6.13,2.05.28.06.58.1.96.1h.1Z"></path><path class="cls-7" d="M996.51,56.8c2.49,1.44,5.93.5,7.36-1.97,1.49-2.57.6-5.87-1.97-7.36-.82-.47-1.74-.72-2.68-.72-1.92,0-3.72,1.03-4.68,2.69-.72,1.24-.91,2.69-.54,4.09.37,1.39,1.27,2.55,2.51,3.27Z"></path><path class="cls-1" d="M965.76,49.95c.36,2.01.35,4.26-.02,6.69.11.02.22.04.33.06,2.42.45,4.97.38,7.4-.19.45-.1.9-.23,1.34-.37l.77-.26c.45-.16.79-.27,1.11-.41,1.66-.69,3.3-1.63,4.89-2.77,1.63-1.18,3.26-2.62,4.84-4.29.21-.22.41-.5.61-.87.54-.97.7-2.09.45-3.16-.21-.87-.6-1.57-1.24-2.18-.81-.77-1.88-1.2-3-1.2-1.31.03-2.39.52-3.2,1.37-.28.3-.57.59-.85.87-.33.32-.65.62-.97.9-.24.21-.48.42-.73.62-.2.17-.44.35-.66.53-1.42,1.07-2.77,1.82-4.14,2.31-.62.22-1.2.37-1.76.46-1.17.2-2.36.18-3.59-.07-.55-.12-1.1-.28-1.64-.5-.12-.05-.25-.1-.37-.15.08.43.15.84.21,1.23l.23,1.35Z"></path><path class="cls-1" d="M972.56,39.64c2.57-1.48,3.46-4.79,1.97-7.36-.96-1.66-2.75-2.69-4.68-2.69-.94,0-1.86.25-2.68.72-1.25.72-2.14,1.88-2.51,3.27-.37,1.39-.18,2.84.54,4.09,1.43,2.47,4.87,3.41,7.36,1.97Z"></path></g></g></g></g></g><path d="M1216.93,35.72v1.71h-3.3v8.61h-2.05v-8.61h-3.26v-1.71h8.61ZM1228.08,46.04l-.38-6.07c-.04-.8-.04-1.78-.08-2.89h-.11c-.27.91-.61,2.13-.87,3.07l-1.86,5.73h-2.12l-1.86-5.88c-.19-.76-.49-2.01-.72-2.92h-.11c0,.95-.04,1.94-.08,2.89l-.38,6.07h-1.97l.76-10.32h3.08l1.78,5.05c.27.8.42,1.56.68,2.62h.04c.27-.91.49-1.82.72-2.54l1.78-5.12h2.96l.8,10.32h-2.05Z"></path></g><line class="cls-4" x1="757.98" x2="757.98" y2="232.38"></line></g></g></svg>